<svg xmlns="http://www.w3.org/2000/svg" xmlns:xlink="http://www.w3.org/1999/xlink" width="450" zoomAndPan="magnify" viewBox="0 0 337.5 52.499999" height="70" preserveAspectRatio="xMidYMid meet" version="1.0"><defs><g/><clipPath id="9499327187"><path d="M 3.203125 6.25 L 35.148438 6.25 L 35.148438 45.625 L 3.203125 45.625 Z M 3.203125 6.25 " clip-rule="nonzero"/></clipPath><clipPath id="8ca6560c1e"><path d="M 3.203125 6.25 L 35.148438 6.25 L 35.148438 16 L 3.203125 16 Z M 3.203125 6.25 " clip-rule="nonzero"/></clipPath><clipPath id="4fe4b0103e"><path d="M 17 15 L 22 15 L 22 45.625 L 17 45.625 Z M 17 15 " clip-rule="nonzero"/></clipPath><clipPath id="628bbaf077"><path d="M 3.203125 6.25 L 35.148438 6.25 L 35.148438 45.625 L 3.203125 45.625 Z M 3.203125 6.25 " clip-rule="nonzero"/></clipPath><clipPath id="1280025783"><path d="M 3.203125 15 L 35.148438 15 L 35.148438 16 L 3.203125 16 Z M 3.203125 15 " clip-rule="nonzero"/></clipPath></defs><g fill="#010839" fill-opacity="0.4"><g transform="translate(42.830629, 24.218714)"><g><path d="M 25.296875 0 L 18.234375 0 L 18.234375 -5.953125 L 14.625 -0.859375 L 12 -0.859375 L 8.40625 -5.953125 L 8.40625 0 L 1.3125 0 L 1.3125 -16 L 7.640625 -16 L 13.3125 -7.640625 L 19 -16 L 25.296875 -16 Z M 25.296875 0 "/></g></g></g><g fill="#010839" fill-opacity="0.4"><g transform="translate(69.463558, 24.218714)"><g><path d="M 8.40625 -16 L 8.40625 0 L 1.3125 0 L 1.3125 -16 Z M 8.40625 -16 "/></g></g></g><g fill="#010839" fill-opacity="0.4"><g transform="translate(79.183142, 24.218714)"><g><path d="M 18.265625 -4.953125 L 18.265625 0 L 1.3125 0 L 1.3125 -16 L 8.40625 -16 L 8.40625 -4.953125 Z M 18.265625 -4.953125 "/></g></g></g><g fill="#010839" fill-opacity="0.4"><g transform="translate(98.526385, 24.218714)"><g><path d="M 8.40625 -16 L 8.40625 0 L 1.3125 0 L 1.3125 -16 Z M 8.40625 -16 "/></g></g></g><g fill="#010839" fill-opacity="0.4"><g transform="translate(108.24597, 24.218714)"><g><path d="M 20.15625 -11.03125 L 14.203125 -11.03125 L 14.203125 0 L 7.140625 0 L 7.140625 -11.03125 L 1.1875 -11.03125 L 1.1875 -16 L 20.15625 -16 Z M 20.15625 -11.03125 "/></g></g></g><g fill="#010839" fill-opacity="0.4"><g transform="translate(129.571505, 24.218714)"><g><path d="M 15.828125 -2.4375 L 8.28125 -2.4375 L 7.0625 0 L 0.21875 0 L 8.546875 -16 L 15.640625 -16 L 23.828125 0 L 17.015625 0 Z M 13.8125 -6.421875 L 12.09375 -10.390625 L 10.296875 -6.421875 Z M 13.8125 -6.421875 "/></g></g></g><g fill="#010839" fill-opacity="0.4"><g transform="translate(153.646652, 24.218714)"><g><path d="M 18.109375 -6.90625 C 19.472656 -5.988281 20.15625 -4.5625 20.15625 -2.625 L 20.15625 0 L 13.78125 0 L 13.78125 -3.609375 C 13.78125 -4.972656 12.953125 -5.722656 11.296875 -5.859375 L 8.40625 -5.859375 L 8.40625 0 L 1.3125 0 L 1.3125 -16 L 13.6875 -16 C 15.800781 -16 17.425781 -15.554688 18.5625 -14.671875 C 19.707031 -13.785156 20.28125 -12.519531 20.28125 -10.875 C 20.28125 -9.082031 19.554688 -7.757812 18.109375 -6.90625 Z M 12.25 -9.859375 C 13.382812 -9.859375 13.953125 -10.164062 13.953125 -10.78125 C 13.953125 -11.4375 13.382812 -11.765625 12.25 -11.765625 L 8.40625 -11.765625 L 8.40625 -9.859375 Z M 12.25 -9.859375 "/></g></g></g><g fill="#010839" fill-opacity="0.4"><g transform="translate(175.036123, 24.218714)"><g><path d="M 21.90625 -16 L 14.6875 -6.46875 L 14.6875 0 L 7.609375 0 L 7.609375 -6.46875 L 0.421875 -16 L 7.90625 -16 L 11.15625 -11.265625 L 14.390625 -16 Z M 21.90625 -16 "/></g></g></g><g fill="#ffffff" fill-opacity="1"><g transform="translate(42.395209, 23.783296)"><g><path d="M 25.296875 0 L 18.234375 0 L 18.234375 -5.953125 L 14.625 -0.859375 L 12 -0.859375 L 8.40625 -5.953125 L 8.40625 0 L 1.3125 0 L 1.3125 -16 L 7.640625 -16 L 13.3125 -7.640625 L 19 -16 L 25.296875 -16 Z M 25.296875 0 "/></g></g></g><g fill="#ffffff" fill-opacity="1"><g transform="translate(69.028138, 23.783296)"><g><path d="M 8.40625 -16 L 8.40625 0 L 1.3125 0 L 1.3125 -16 Z M 8.40625 -16 "/></g></g></g><g fill="#ffffff" fill-opacity="1"><g transform="translate(78.747723, 23.783296)"><g><path d="M 18.265625 -4.953125 L 18.265625 0 L 1.3125 0 L 1.3125 -16 L 8.40625 -16 L 8.40625 -4.953125 Z M 18.265625 -4.953125 "/></g></g></g><g fill="#ffffff" fill-opacity="1"><g transform="translate(98.090966, 23.783296)"><g><path d="M 8.40625 -16 L 8.40625 0 L 1.3125 0 L 1.3125 -16 Z M 8.40625 -16 "/></g></g></g><g fill="#ffffff" fill-opacity="1"><g transform="translate(107.810551, 23.783296)"><g><path d="M 20.15625 -11.03125 L 14.203125 -11.03125 L 14.203125 0 L 7.140625 0 L 7.140625 -11.03125 L 1.1875 -11.03125 L 1.1875 -16 L 20.15625 -16 Z M 20.15625 -11.03125 "/></g></g></g><g fill="#ffffff" fill-opacity="1"><g transform="translate(129.136085, 23.783296)"><g><path d="M 15.828125 -2.4375 L 8.28125 -2.4375 L 7.0625 0 L 0.21875 0 L 8.546875 -16 L 15.640625 -16 L 23.828125 0 L 17.015625 0 Z M 13.8125 -6.421875 L 12.09375 -10.390625 L 10.296875 -6.421875 Z M 13.8125 -6.421875 "/></g></g></g><g fill="#ffffff" fill-opacity="1"><g transform="translate(153.211232, 23.783296)"><g><path d="M 18.109375 -6.90625 C 19.472656 -5.988281 20.15625 -4.5625 20.15625 -2.625 L 20.15625 0 L 13.78125 0 L 13.78125 -3.609375 C 13.78125 -4.972656 12.953125 -5.722656 11.296875 -5.859375 L 8.40625 -5.859375 L 8.40625 0 L 1.3125 0 L 1.3125 -16 L 13.6875 -16 C 15.800781 -16 17.425781 -15.554688 18.5625 -14.671875 C 19.707031 -13.785156 20.28125 -12.519531 20.28125 -10.875 C 20.28125 -9.082031 19.554688 -7.757812 18.109375 -6.90625 Z M 12.25 -9.859375 C 13.382812 -9.859375 13.953125 -10.164062 13.953125 -10.78125 C 13.953125 -11.4375 13.382812 -11.765625 12.25 -11.765625 L 8.40625 -11.765625 L 8.40625 -9.859375 Z M 12.25 -9.859375 "/></g></g></g><g fill="#ffffff" fill-opacity="1"><g transform="translate(174.600703, 23.783296)"><g><path d="M 21.90625 -16 L 14.6875 -6.46875 L 14.6875 0 L 7.609375 0 L 7.609375 -6.46875 L 0.421875 -16 L 7.90625 -16 L 11.15625 -11.265625 L 14.390625 -16 Z M 21.90625 -16 "/></g></g></g><g fill="#010839" fill-opacity="0.4"><g transform="translate(197.138365, 24.218714)"><g><path d="M 15.828125 -2.4375 L 8.28125 -2.4375 L 7.0625 0 L 0.21875 0 L 8.546875 -16 L 15.640625 -16 L 23.828125 0 L 17.015625 0 Z M 13.8125 -6.421875 L 12.09375 -10.390625 L 10.296875 -6.421875 Z M 13.8125 -6.421875 "/></g></g></g><g fill="#010839" fill-opacity="0.4"><g transform="translate(221.213511, 24.218714)"><g><path d="M 18.265625 -4.953125 L 18.265625 0 L 1.3125 0 L 1.3125 -16 L 8.40625 -16 L 8.40625 -4.953125 Z M 18.265625 -4.953125 "/></g></g></g><g fill="#010839" fill-opacity="0.4"><g transform="translate(240.556754, 24.218714)"><g><path d="M 18.265625 -4.953125 L 18.265625 0 L 1.3125 0 L 1.3125 -16 L 8.40625 -16 L 8.40625 -4.953125 Z M 18.265625 -4.953125 "/></g></g></g><g fill="#010839" fill-opacity="0.4"><g transform="translate(259.899997, 24.218714)"><g><path d="M 8.40625 -16 L 8.40625 0 L 1.3125 0 L 1.3125 -16 Z M 8.40625 -16 "/></g></g></g><g fill="#010839" fill-opacity="0.4"><g transform="translate(269.619582, 24.218714)"><g><path d="M 8.40625 -11.765625 L 8.40625 -10.015625 L 18.265625 -10.015625 L 18.265625 -6.015625 L 8.40625 -6.015625 L 8.40625 -4.25 L 18.265625 -4.25 L 18.265625 0 L 1.3125 0 L 1.3125 -16 L 18.265625 -16 L 18.265625 -11.765625 Z M 8.40625 -11.765625 "/></g></g></g><g fill="#010839" fill-opacity="0.4"><g transform="translate(289.186634, 24.218714)"><g><path d="M 10.9375 0.21875 C 14.175781 0.238281 16.671875 -0.203125 18.421875 -1.109375 C 20.171875 -2.015625 21.046875 -3.335938 21.046875 -5.078125 C 21.046875 -5.953125 20.800781 -6.671875 20.3125 -7.234375 C 19.820312 -7.804688 19.175781 -8.265625 18.375 -8.609375 C 17.570312 -8.960938 16.691406 -9.234375 15.734375 -9.421875 C 14.773438 -9.617188 13.820312 -9.769531 12.875 -9.875 C 11.925781 -9.988281 11.050781 -10.085938 10.25 -10.171875 C 9.445312 -10.253906 8.800781 -10.359375 8.3125 -10.484375 C 7.820312 -10.617188 7.578125 -10.8125 7.578125 -11.0625 C 7.578125 -11.382812 7.863281 -11.625 8.4375 -11.78125 C 9.019531 -11.945312 9.84375 -12.03125 10.90625 -12.03125 C 11.84375 -12.03125 12.640625 -11.878906 13.296875 -11.578125 C 13.960938 -11.273438 14.4375 -10.847656 14.71875 -10.296875 L 20.4375 -11.640625 C 19.78125 -13.128906 18.625 -14.273438 16.96875 -15.078125 C 15.3125 -15.878906 13.289062 -16.28125 10.90625 -16.28125 C 7.6875 -16.28125 5.195312 -15.816406 3.4375 -14.890625 C 1.675781 -13.960938 0.796875 -12.632812 0.796875 -10.90625 C 0.796875 -10.03125 1.039062 -9.316406 1.53125 -8.765625 C 2.019531 -8.210938 2.664062 -7.765625 3.46875 -7.421875 C 4.269531 -7.078125 5.148438 -6.8125 6.109375 -6.625 C 7.066406 -6.445312 8.019531 -6.304688 8.96875 -6.203125 C 9.914062 -6.097656 10.789062 -6.003906 11.59375 -5.921875 C 12.394531 -5.835938 13.039062 -5.71875 13.53125 -5.5625 C 14.019531 -5.414062 14.265625 -5.203125 14.265625 -4.921875 C 14.265625 -4.648438 13.972656 -4.429688 13.390625 -4.265625 C 12.816406 -4.109375 12 -4.03125 10.9375 -4.03125 C 9 -4.03125 7.734375 -4.582031 7.140625 -5.6875 L 1.40625 -4.34375 C 2.09375 -2.875 3.253906 -1.738281 4.890625 -0.9375 C 6.535156 -0.144531 8.550781 0.238281 10.9375 0.21875 Z M 10.9375 0.21875 "/></g></g></g><g fill="#bb0000" fill-opacity="1"><g transform="translate(196.702945, 23.783296)"><g><path d="M 15.828125 -2.4375 L 8.28125 -2.4375 L 7.0625 0 L 0.21875 0 L 8.546875 -16 L 15.640625 -16 L 23.828125 0 L 17.015625 0 Z M 13.8125 -6.421875 L 12.09375 -10.390625 L 10.296875 -6.421875 Z M 13.8125 -6.421875 "/></g></g></g><g fill="#bb0000" fill-opacity="1"><g transform="translate(220.778092, 23.783296)"><g><path d="M 18.265625 -4.953125 L 18.265625 0 L 1.3125 0 L 1.3125 -16 L 8.40625 -16 L 8.40625 -4.953125 Z M 18.265625 -4.953125 "/></g></g></g><g fill="#bb0000" fill-opacity="1"><g transform="translate(240.121335, 23.783296)"><g><path d="M 18.265625 -4.953125 L 18.265625 0 L 1.3125 0 L 1.3125 -16 L 8.40625 -16 L 8.40625 -4.953125 Z M 18.265625 -4.953125 "/></g></g></g><g fill="#bb0000" fill-opacity="1"><g transform="translate(259.464578, 23.783296)"><g><path d="M 8.40625 -16 L 8.40625 0 L 1.3125 0 L 1.3125 -16 Z M 8.40625 -16 "/></g></g></g><g fill="#bb0000" fill-opacity="1"><g transform="translate(269.184162, 23.783296)"><g><path d="M 8.40625 -11.765625 L 8.40625 -10.015625 L 18.265625 -10.015625 L 18.265625 -6.015625 L 8.40625 -6.015625 L 8.40625 -4.25 L 18.265625 -4.25 L 18.265625 0 L 1.3125 0 L 1.3125 -16 L 18.265625 -16 L 18.265625 -11.765625 Z M 8.40625 -11.765625 "/></g></g></g><g fill="#bb0000" fill-opacity="1"><g transform="translate(288.751215, 23.783296)"><g><path d="M 10.9375 0.21875 C 14.175781 0.238281 16.671875 -0.203125 18.421875 -1.109375 C 20.171875 -2.015625 21.046875 -3.335938 21.046875 -5.078125 C 21.046875 -5.953125 20.800781 -6.671875 20.3125 -7.234375 C 19.820312 -7.804688 19.175781 -8.265625 18.375 -8.609375 C 17.570312 -8.960938 16.691406 -9.234375 15.734375 -9.421875 C 14.773438 -9.617188 13.820312 -9.769531 12.875 -9.875 C 11.925781 -9.988281 11.050781 -10.085938 10.25 -10.171875 C 9.445312 -10.253906 8.800781 -10.359375 8.3125 -10.484375 C 7.820312 -10.617188 7.578125 -10.8125 7.578125 -11.0625 C 7.578125 -11.382812 7.863281 -11.625 8.4375 -11.78125 C 9.019531 -11.945312 9.84375 -12.03125 10.90625 -12.03125 C 11.84375 -12.03125 12.640625 -11.878906 13.296875 -11.578125 C 13.960938 -11.273438 14.4375 -10.847656 14.71875 -10.296875 L 20.4375 -11.640625 C 19.78125 -13.128906 18.625 -14.273438 16.96875 -15.078125 C 15.3125 -15.878906 13.289062 -16.28125 10.90625 -16.28125 C 7.6875 -16.28125 5.195312 -15.816406 3.4375 -14.890625 C 1.675781 -13.960938 0.796875 -12.632812 0.796875 -10.90625 C 0.796875 -10.03125 1.039062 -9.316406 1.53125 -8.765625 C 2.019531 -8.210938 2.664062 -7.765625 3.46875 -7.421875 C 4.269531 -7.078125 5.148438 -6.8125 6.109375 -6.625 C 7.066406 -6.445312 8.019531 -6.304688 8.96875 -6.203125 C 9.914062 -6.097656 10.789062 -6.003906 11.59375 -5.921875 C 12.394531 -5.835938 13.039062 -5.71875 13.53125 -5.5625 C 14.019531 -5.414062 14.265625 -5.203125 14.265625 -4.921875 C 14.265625 -4.648438 13.972656 -4.429688 13.390625 -4.265625 C 12.816406 -4.109375 12 -4.03125 10.9375 -4.03125 C 9 -4.03125 7.734375 -4.582031 7.140625 -5.6875 L 1.40625 -4.34375 C 2.09375 -2.875 3.253906 -1.738281 4.890625 -0.9375 C 6.535156 -0.144531 8.550781 0.238281 10.9375 0.21875 Z M 10.9375 0.21875 "/></g></g></g><path stroke-linecap="butt" transform="matrix(0.742924, 0, 0, 0.742924, 38.038944, 27.763532)" fill="none" stroke-linejoin="miter" d="M 0.000159751 2.000833 L 375.669233 2.000833 " stroke="#ffffff" stroke-width="4" stroke-opacity="1" stroke-miterlimit="4"/><g fill="#ffffff" fill-opacity="1"><g transform="translate(40.617135, 41.519807)"><g><path d="M 1.65625 -7.921875 L 0.15625 -7.921875 L 0.15625 -8.828125 L 4.34375 -8.828125 L 4.34375 -7.921875 L 2.890625 -7.921875 L 2.890625 0 L 1.65625 0 Z M 1.65625 -7.921875 "/></g></g></g><g fill="#ffffff" fill-opacity="1"><g transform="translate(46.165928, 41.519807)"><g><path d="M 0.6875 -8.828125 L 1.921875 -8.828125 L 1.921875 -5.015625 L 4.1875 -5.015625 L 4.1875 -8.828125 L 5.421875 -8.828125 L 5.421875 0 L 4.1875 0 L 4.1875 -4.140625 L 1.921875 -4.140625 L 1.921875 0 L 0.6875 0 Z M 0.6875 -8.828125 "/></g></g></g><g fill="#ffffff" fill-opacity="1"><g transform="translate(53.327933, 41.519807)"><g><path d="M 0.6875 -8.828125 L 4.109375 -8.828125 L 4.109375 -7.921875 L 1.921875 -7.921875 L 1.921875 -5 L 3.703125 -5 L 3.703125 -4.125 L 1.921875 -4.125 L 1.921875 -0.890625 L 4.140625 -0.890625 L 4.140625 0 L 0.6875 0 Z M 0.6875 -8.828125 "/></g></g></g><g fill="#ffffff" fill-opacity="1"><g transform="translate(58.811328, 41.519807)"><g/></g></g><g fill="#ffffff" fill-opacity="1"><g transform="translate(62.354523, 41.519807)"><g><path d="M 2.96875 0.09375 C 2.351562 0.09375 1.867188 -0.0234375 1.515625 -0.265625 C 1.171875 -0.515625 0.929688 -0.859375 0.796875 -1.296875 C 0.671875 -1.742188 0.609375 -2.304688 0.609375 -2.984375 L 0.609375 -8.828125 L 1.78125 -8.828125 L 1.78125 -2.921875 C 1.78125 -2.253906 1.859375 -1.742188 2.015625 -1.390625 C 2.171875 -1.046875 2.488281 -0.875 2.96875 -0.875 C 3.4375 -0.875 3.75 -1.046875 3.90625 -1.390625 C 4.0625 -1.742188 4.140625 -2.253906 4.140625 -2.921875 L 4.140625 -8.828125 L 5.3125 -8.828125 L 5.3125 -2.984375 C 5.3125 -2.304688 5.242188 -1.742188 5.109375 -1.296875 C 4.984375 -0.859375 4.75 -0.515625 4.40625 -0.265625 C 4.0625 -0.0234375 3.582031 0.09375 2.96875 0.09375 Z M 2.96875 0.09375 "/></g></g></g><g fill="#ffffff" fill-opacity="1"><g transform="translate(69.320321, 41.519807)"><g><path d="M 0.6875 -8.828125 L 1.921875 -8.828125 L 1.921875 -0.890625 L 4.171875 -0.890625 L 4.171875 0 L 0.6875 0 Z M 0.6875 -8.828125 "/></g></g></g><g fill="#ffffff" fill-opacity="1"><g transform="translate(74.69472, 41.519807)"><g><path d="M 1.65625 -7.921875 L 0.15625 -7.921875 L 0.15625 -8.828125 L 4.34375 -8.828125 L 4.34375 -7.921875 L 2.890625 -7.921875 L 2.890625 0 L 1.65625 0 Z M 1.65625 -7.921875 "/></g></g></g><g fill="#ffffff" fill-opacity="1"><g transform="translate(80.243514, 41.519807)"><g><path d="M 0.75 -8.828125 L 1.96875 -8.828125 L 1.96875 0 L 0.75 0 Z M 0.75 -8.828125 "/></g></g></g><g fill="#ffffff" fill-opacity="1"><g transform="translate(83.993808, 41.519807)"><g><path d="M 0.828125 -8.828125 L 2.046875 -8.828125 L 3.59375 -1.671875 L 5.171875 -8.828125 L 6.375 -8.828125 L 6.53125 0 L 5.546875 0 L 5.4375 -6.40625 L 3.953125 0 L 3.25 0 L 1.765625 -6.40625 L 1.671875 0 L 0.671875 0 Z M 0.828125 -8.828125 "/></g></g></g><g fill="#ffffff" fill-opacity="1"><g transform="translate(92.234924, 41.519807)"><g><path d="M 2.078125 -8.828125 L 3.265625 -8.828125 L 5.15625 0 L 3.984375 0 L 3.59375 -2.21875 L 1.78125 -2.21875 L 1.359375 0 L 0.203125 0 Z M 3.421875 -3.109375 L 2.6875 -7.09375 L 1.953125 -3.109375 Z M 3.421875 -3.109375 "/></g></g></g><g fill="#ffffff" fill-opacity="1"><g transform="translate(98.644824, 41.519807)"><g><path d="M 1.65625 -7.921875 L 0.15625 -7.921875 L 0.15625 -8.828125 L 4.34375 -8.828125 L 4.34375 -7.921875 L 2.890625 -7.921875 L 2.890625 0 L 1.65625 0 Z M 1.65625 -7.921875 "/></g></g></g><g fill="#ffffff" fill-opacity="1"><g transform="translate(104.19362, 41.519807)"><g><path d="M 0.6875 -8.828125 L 4.109375 -8.828125 L 4.109375 -7.921875 L 1.921875 -7.921875 L 1.921875 -5 L 3.703125 -5 L 3.703125 -4.125 L 1.921875 -4.125 L 1.921875 -0.890625 L 4.140625 -0.890625 L 4.140625 0 L 0.6875 0 Z M 0.6875 -8.828125 "/></g></g></g><g fill="#ffffff" fill-opacity="1"><g transform="translate(109.677019, 41.519807)"><g/></g></g><g fill="#ffffff" fill-opacity="1"><g transform="translate(113.220216, 41.519807)"><g><path d="M 0.6875 -8.828125 L 1.921875 -8.828125 L 1.921875 -5.015625 L 4.1875 -5.015625 L 4.1875 -8.828125 L 5.421875 -8.828125 L 5.421875 0 L 4.1875 0 L 4.1875 -4.140625 L 1.921875 -4.140625 L 1.921875 0 L 0.6875 0 Z M 0.6875 -8.828125 "/></g></g></g><g fill="#ffffff" fill-opacity="1"><g transform="translate(120.382223, 41.519807)"><g><path d="M 2.96875 0.09375 C 2.351562 0.09375 1.867188 -0.0234375 1.515625 -0.265625 C 1.171875 -0.515625 0.929688 -0.859375 0.796875 -1.296875 C 0.671875 -1.742188 0.609375 -2.304688 0.609375 -2.984375 L 0.609375 -8.828125 L 1.78125 -8.828125 L 1.78125 -2.921875 C 1.78125 -2.253906 1.859375 -1.742188 2.015625 -1.390625 C 2.171875 -1.046875 2.488281 -0.875 2.96875 -0.875 C 3.4375 -0.875 3.75 -1.046875 3.90625 -1.390625 C 4.0625 -1.742188 4.140625 -2.253906 4.140625 -2.921875 L 4.140625 -8.828125 L 5.3125 -8.828125 L 5.3125 -2.984375 C 5.3125 -2.304688 5.242188 -1.742188 5.109375 -1.296875 C 4.984375 -0.859375 4.75 -0.515625 4.40625 -0.265625 C 4.0625 -0.0234375 3.582031 0.09375 2.96875 0.09375 Z M 2.96875 0.09375 "/></g></g></g><g fill="#ffffff" fill-opacity="1"><g transform="translate(127.348024, 41.519807)"><g><path d="M 0.6875 -8.828125 L 2.71875 -8.828125 C 3.519531 -8.828125 4.113281 -8.644531 4.5 -8.28125 C 4.882812 -7.925781 5.078125 -7.375 5.078125 -6.625 C 5.078125 -5.488281 4.65625 -4.863281 3.8125 -4.75 C 4.332031 -4.625 4.710938 -4.378906 4.953125 -4.015625 C 5.191406 -3.648438 5.3125 -3.148438 5.3125 -2.515625 C 5.3125 -1.722656 5.125 -1.101562 4.75 -0.65625 C 4.375 -0.21875 3.804688 0 3.046875 0 L 0.6875 0 Z M 2.65625 -5.140625 C 3.15625 -5.140625 3.503906 -5.25 3.703125 -5.46875 C 3.898438 -5.695312 4 -6.082031 4 -6.625 C 4 -7.007812 3.9375 -7.296875 3.8125 -7.484375 C 3.695312 -7.671875 3.519531 -7.789062 3.28125 -7.84375 C 3.039062 -7.894531 2.6875 -7.921875 2.21875 -7.921875 L 1.921875 -7.921875 L 1.921875 -5.140625 Z M 2.75 -0.890625 C 3.113281 -0.890625 3.394531 -0.941406 3.59375 -1.046875 C 3.789062 -1.160156 3.929688 -1.332031 4.015625 -1.5625 C 4.097656 -1.800781 4.140625 -2.117188 4.140625 -2.515625 C 4.140625 -3.085938 4.019531 -3.507812 3.78125 -3.78125 C 3.550781 -4.0625 3.175781 -4.203125 2.65625 -4.203125 L 1.921875 -4.203125 L 1.921875 -0.890625 Z M 2.75 -0.890625 "/></g></g></g><g fill="#ffffff" fill-opacity="1"><g transform="translate(134.106726, 41.519807)"><g/></g></g><g fill="#ffffff" fill-opacity="1"><g transform="translate(137.649923, 41.519807)"><g><path d="M 0.6875 -8.828125 L 4.09375 -8.828125 L 4.09375 -7.953125 L 1.921875 -7.953125 L 1.921875 -5 L 3.609375 -5 L 3.609375 -4.140625 L 1.921875 -4.140625 L 1.921875 0 L 0.6875 0 Z M 0.6875 -8.828125 "/></g></g></g><g fill="#ffffff" fill-opacity="1"><g transform="translate(142.958927, 41.519807)"><g><path d="M 2.9375 0.09375 C 2.070312 0.09375 1.453125 -0.148438 1.078125 -0.640625 C 0.710938 -1.128906 0.53125 -1.835938 0.53125 -2.765625 L 0.53125 -6.125 C 0.53125 -7.039062 0.71875 -7.734375 1.09375 -8.203125 C 1.46875 -8.671875 2.082031 -8.90625 2.9375 -8.90625 C 3.800781 -8.90625 4.421875 -8.664062 4.796875 -8.1875 C 5.171875 -7.71875 5.359375 -7.03125 5.359375 -6.125 L 5.359375 -2.765625 C 5.359375 -1.847656 5.164062 -1.140625 4.78125 -0.640625 C 4.40625 -0.148438 3.789062 0.09375 2.9375 0.09375 Z M 2.9375 -0.875 C 3.394531 -0.875 3.703125 -1.003906 3.859375 -1.265625 C 4.023438 -1.535156 4.109375 -1.945312 4.109375 -2.5 L 4.109375 -6.375 C 4.109375 -6.90625 4.023438 -7.300781 3.859375 -7.5625 C 3.703125 -7.820312 3.394531 -7.953125 2.9375 -7.953125 C 2.476562 -7.953125 2.164062 -7.820312 2 -7.5625 C 1.84375 -7.300781 1.765625 -6.90625 1.765625 -6.375 L 1.765625 -2.5 C 1.765625 -1.945312 1.84375 -1.535156 2 -1.265625 C 2.164062 -1.003906 2.476562 -0.875 2.9375 -0.875 Z M 2.9375 -0.875 "/></g></g></g><g fill="#ffffff" fill-opacity="1"><g transform="translate(149.881129, 41.519807)"><g><path d="M 0.6875 -8.828125 L 2.46875 -8.828125 C 3.363281 -8.828125 4.019531 -8.644531 4.4375 -8.28125 C 4.851562 -7.914062 5.0625 -7.316406 5.0625 -6.484375 C 5.0625 -5.347656 4.695312 -4.660156 3.96875 -4.421875 L 5.21875 0 L 4.03125 0 L 2.875 -4.140625 L 1.921875 -4.140625 L 1.921875 0 L 0.6875 0 Z M 2.390625 -5.03125 C 2.921875 -5.03125 3.300781 -5.132812 3.53125 -5.34375 C 3.757812 -5.550781 3.875 -5.929688 3.875 -6.484375 C 3.875 -6.847656 3.832031 -7.132812 3.75 -7.34375 C 3.664062 -7.550781 3.519531 -7.703125 3.3125 -7.796875 C 3.113281 -7.898438 2.832031 -7.953125 2.46875 -7.953125 L 1.921875 -7.953125 L 1.921875 -5.03125 Z M 2.390625 -5.03125 "/></g></g></g><g fill="#ffffff" fill-opacity="1"><g transform="translate(156.585338, 41.519807)"><g/></g></g><g fill="#ffffff" fill-opacity="1"><g transform="translate(160.128535, 41.519807)"><g><path d="M 0.828125 -8.828125 L 2.046875 -8.828125 L 3.59375 -1.671875 L 5.171875 -8.828125 L 6.375 -8.828125 L 6.53125 0 L 5.546875 0 L 5.4375 -6.40625 L 3.953125 0 L 3.25 0 L 1.765625 -6.40625 L 1.671875 0 L 0.671875 0 Z M 0.828125 -8.828125 "/></g></g></g><g fill="#ffffff" fill-opacity="1"><g transform="translate(168.369651, 41.519807)"><g><path d="M 0.75 -8.828125 L 1.96875 -8.828125 L 1.96875 0 L 0.75 0 Z M 0.75 -8.828125 "/></g></g></g><g fill="#ffffff" fill-opacity="1"><g transform="translate(172.119948, 41.519807)"><g><path d="M 0.6875 -8.828125 L 1.921875 -8.828125 L 1.921875 -0.890625 L 4.171875 -0.890625 L 4.171875 0 L 0.6875 0 Z M 0.6875 -8.828125 "/></g></g></g><g fill="#ffffff" fill-opacity="1"><g transform="translate(177.49435, 41.519807)"><g><path d="M 0.25 -8.828125 L 1.40625 -8.828125 L 2.796875 -2.328125 L 4.140625 -8.828125 L 5.25 -8.828125 L 3.296875 0 L 2.21875 0 Z M 0.25 -8.828125 "/></g></g></g><g fill="#ffffff" fill-opacity="1"><g transform="translate(184.045951, 41.519807)"><g><path d="M 0.6875 -8.828125 L 4.109375 -8.828125 L 4.109375 -7.921875 L 1.921875 -7.921875 L 1.921875 -5 L 3.703125 -5 L 3.703125 -4.125 L 1.921875 -4.125 L 1.921875 -0.890625 L 4.140625 -0.890625 L 4.140625 0 L 0.6875 0 Z M 0.6875 -8.828125 "/></g></g></g><g fill="#ffffff" fill-opacity="1"><g transform="translate(189.52935, 41.519807)"><g><path d="M 1.65625 -7.921875 L 0.15625 -7.921875 L 0.15625 -8.828125 L 4.34375 -8.828125 L 4.34375 -7.921875 L 2.890625 -7.921875 L 2.890625 0 L 1.65625 0 Z M 1.65625 -7.921875 "/></g></g></g><g fill="#ffffff" fill-opacity="1"><g transform="translate(195.078146, 41.519807)"><g/></g></g><g fill="#ffffff" fill-opacity="1"><g transform="translate(198.621344, 41.519807)"><g><path d="M 0.6875 -8.828125 L 2.46875 -8.828125 C 3.363281 -8.828125 4.019531 -8.644531 4.4375 -8.28125 C 4.851562 -7.914062 5.0625 -7.316406 5.0625 -6.484375 C 5.0625 -5.347656 4.695312 -4.660156 3.96875 -4.421875 L 5.21875 0 L 4.03125 0 L 2.875 -4.140625 L 1.921875 -4.140625 L 1.921875 0 L 0.6875 0 Z M 2.390625 -5.03125 C 2.921875 -5.03125 3.300781 -5.132812 3.53125 -5.34375 C 3.757812 -5.550781 3.875 -5.929688 3.875 -6.484375 C 3.875 -6.847656 3.832031 -7.132812 3.75 -7.34375 C 3.664062 -7.550781 3.519531 -7.703125 3.3125 -7.796875 C 3.113281 -7.898438 2.832031 -7.953125 2.46875 -7.953125 L 1.921875 -7.953125 L 1.921875 -5.03125 Z M 2.390625 -5.03125 "/></g></g></g><g fill="#ffffff" fill-opacity="1"><g transform="translate(205.325553, 41.519807)"><g><path d="M 0.6875 -8.828125 L 4.109375 -8.828125 L 4.109375 -7.921875 L 1.921875 -7.921875 L 1.921875 -5 L 3.703125 -5 L 3.703125 -4.125 L 1.921875 -4.125 L 1.921875 -0.890625 L 4.140625 -0.890625 L 4.140625 0 L 0.6875 0 Z M 0.6875 -8.828125 "/></g></g></g><g fill="#ffffff" fill-opacity="1"><g transform="translate(210.808951, 41.519807)"><g><path d="M 2.765625 0.09375 C 2.023438 0.09375 1.457031 -0.132812 1.0625 -0.59375 C 0.675781 -1.050781 0.460938 -1.675781 0.421875 -2.46875 L 1.515625 -2.765625 C 1.554688 -2.203125 1.664062 -1.742188 1.84375 -1.390625 C 2.03125 -1.046875 2.335938 -0.875 2.765625 -0.875 C 3.085938 -0.875 3.328125 -0.960938 3.484375 -1.140625 C 3.648438 -1.316406 3.734375 -1.570312 3.734375 -1.90625 C 3.734375 -2.269531 3.65625 -2.570312 3.5 -2.8125 C 3.351562 -3.050781 3.113281 -3.316406 2.78125 -3.609375 L 1.296875 -4.921875 C 0.992188 -5.179688 0.773438 -5.460938 0.640625 -5.765625 C 0.515625 -6.066406 0.453125 -6.4375 0.453125 -6.875 C 0.453125 -7.519531 0.632812 -8.019531 1 -8.375 C 1.375 -8.726562 1.878906 -8.90625 2.515625 -8.90625 C 3.210938 -8.90625 3.738281 -8.71875 4.09375 -8.34375 C 4.457031 -7.976562 4.675781 -7.40625 4.75 -6.625 L 3.703125 -6.34375 C 3.660156 -6.863281 3.554688 -7.265625 3.390625 -7.546875 C 3.234375 -7.828125 2.941406 -7.96875 2.515625 -7.96875 C 2.203125 -7.96875 1.960938 -7.882812 1.796875 -7.71875 C 1.628906 -7.550781 1.546875 -7.304688 1.546875 -6.984375 C 1.546875 -6.722656 1.585938 -6.503906 1.671875 -6.328125 C 1.765625 -6.148438 1.914062 -5.972656 2.125 -5.796875 L 3.625 -4.484375 C 4.007812 -4.140625 4.316406 -3.765625 4.546875 -3.359375 C 4.773438 -2.960938 4.890625 -2.507812 4.890625 -2 C 4.890625 -1.351562 4.691406 -0.84375 4.296875 -0.46875 C 3.898438 -0.09375 3.390625 0.09375 2.765625 0.09375 Z M 2.765625 0.09375 "/></g></g></g><g fill="#ffffff" fill-opacity="1"><g transform="translate(217.011752, 41.519807)"><g><path d="M 2.9375 0.09375 C 2.070312 0.09375 1.453125 -0.148438 1.078125 -0.640625 C 0.710938 -1.128906 0.53125 -1.835938 0.53125 -2.765625 L 0.53125 -6.125 C 0.53125 -7.039062 0.71875 -7.734375 1.09375 -8.203125 C 1.46875 -8.671875 2.082031 -8.90625 2.9375 -8.90625 C 3.800781 -8.90625 4.421875 -8.664062 4.796875 -8.1875 C 5.171875 -7.71875 5.359375 -7.03125 5.359375 -6.125 L 5.359375 -2.765625 C 5.359375 -1.847656 5.164062 -1.140625 4.78125 -0.640625 C 4.40625 -0.148438 3.789062 0.09375 2.9375 0.09375 Z M 2.9375 -0.875 C 3.394531 -0.875 3.703125 -1.003906 3.859375 -1.265625 C 4.023438 -1.535156 4.109375 -1.945312 4.109375 -2.5 L 4.109375 -6.375 C 4.109375 -6.90625 4.023438 -7.300781 3.859375 -7.5625 C 3.703125 -7.820312 3.394531 -7.953125 2.9375 -7.953125 C 2.476562 -7.953125 2.164062 -7.820312 2 -7.5625 C 1.84375 -7.300781 1.765625 -6.90625 1.765625 -6.375 L 1.765625 -2.5 C 1.765625 -1.945312 1.84375 -1.535156 2 -1.265625 C 2.164062 -1.003906 2.476562 -0.875 2.9375 -0.875 Z M 2.9375 -0.875 "/></g></g></g><g fill="#ffffff" fill-opacity="1"><g transform="translate(223.933954, 41.519807)"><g><path d="M 2.96875 0.09375 C 2.351562 0.09375 1.867188 -0.0234375 1.515625 -0.265625 C 1.171875 -0.515625 0.929688 -0.859375 0.796875 -1.296875 C 0.671875 -1.742188 0.609375 -2.304688 0.609375 -2.984375 L 0.609375 -8.828125 L 1.78125 -8.828125 L 1.78125 -2.921875 C 1.78125 -2.253906 1.859375 -1.742188 2.015625 -1.390625 C 2.171875 -1.046875 2.488281 -0.875 2.96875 -0.875 C 3.4375 -0.875 3.75 -1.046875 3.90625 -1.390625 C 4.0625 -1.742188 4.140625 -2.253906 4.140625 -2.921875 L 4.140625 -8.828125 L 5.3125 -8.828125 L 5.3125 -2.984375 C 5.3125 -2.304688 5.242188 -1.742188 5.109375 -1.296875 C 4.984375 -0.859375 4.75 -0.515625 4.40625 -0.265625 C 4.0625 -0.0234375 3.582031 0.09375 2.96875 0.09375 Z M 2.96875 0.09375 "/></g></g></g><g fill="#ffffff" fill-opacity="1"><g transform="translate(230.899755, 41.519807)"><g><path d="M 0.6875 -8.828125 L 2.46875 -8.828125 C 3.363281 -8.828125 4.019531 -8.644531 4.4375 -8.28125 C 4.851562 -7.914062 5.0625 -7.316406 5.0625 -6.484375 C 5.0625 -5.347656 4.695312 -4.660156 3.96875 -4.421875 L 5.21875 0 L 4.03125 0 L 2.875 -4.140625 L 1.921875 -4.140625 L 1.921875 0 L 0.6875 0 Z M 2.390625 -5.03125 C 2.921875 -5.03125 3.300781 -5.132812 3.53125 -5.34375 C 3.757812 -5.550781 3.875 -5.929688 3.875 -6.484375 C 3.875 -6.847656 3.832031 -7.132812 3.75 -7.34375 C 3.664062 -7.550781 3.519531 -7.703125 3.3125 -7.796875 C 3.113281 -7.898438 2.832031 -7.953125 2.46875 -7.953125 L 1.921875 -7.953125 L 1.921875 -5.03125 Z M 2.390625 -5.03125 "/></g></g></g><g fill="#ffffff" fill-opacity="1"><g transform="translate(237.603964, 41.519807)"><g><path d="M 2.90625 0.09375 C 2.03125 0.09375 1.414062 -0.164062 1.0625 -0.6875 C 0.707031 -1.207031 0.53125 -1.921875 0.53125 -2.828125 L 0.53125 -5.953125 C 0.53125 -6.921875 0.703125 -7.65625 1.046875 -8.15625 C 1.398438 -8.65625 2.019531 -8.90625 2.90625 -8.90625 C 3.695312 -8.90625 4.265625 -8.691406 4.609375 -8.265625 C 4.953125 -7.835938 5.125 -7.207031 5.125 -6.375 L 5.125 -5.671875 L 3.953125 -5.671875 L 3.953125 -6.296875 C 3.953125 -6.703125 3.929688 -7.015625 3.890625 -7.234375 C 3.859375 -7.453125 3.769531 -7.625 3.625 -7.75 C 3.476562 -7.882812 3.238281 -7.953125 2.90625 -7.953125 C 2.570312 -7.953125 2.320312 -7.878906 2.15625 -7.734375 C 2 -7.597656 1.894531 -7.398438 1.84375 -7.140625 C 1.789062 -6.890625 1.765625 -6.554688 1.765625 -6.140625 L 1.765625 -2.640625 C 1.765625 -2.191406 1.800781 -1.835938 1.875 -1.578125 C 1.945312 -1.328125 2.0625 -1.144531 2.21875 -1.03125 C 2.382812 -0.925781 2.613281 -0.875 2.90625 -0.875 C 3.21875 -0.875 3.453125 -0.941406 3.609375 -1.078125 C 3.765625 -1.210938 3.859375 -1.398438 3.890625 -1.640625 C 3.929688 -1.878906 3.953125 -2.207031 3.953125 -2.625 L 3.953125 -3.28125 L 5.125 -3.28125 L 5.125 -2.625 C 5.125 -1.75 4.957031 -1.078125 4.625 -0.609375 C 4.300781 -0.140625 3.726562 0.09375 2.90625 0.09375 Z M 2.90625 0.09375 "/></g></g></g><g fill="#ffffff" fill-opacity="1"><g transform="translate(244.264574, 41.519807)"><g><path d="M 0.6875 -8.828125 L 4.109375 -8.828125 L 4.109375 -7.921875 L 1.921875 -7.921875 L 1.921875 -5 L 3.703125 -5 L 3.703125 -4.125 L 1.921875 -4.125 L 1.921875 -0.890625 L 4.140625 -0.890625 L 4.140625 0 L 0.6875 0 Z M 0.6875 -8.828125 "/></g></g></g><g fill="#ffffff" fill-opacity="1"><g transform="translate(249.747972, 41.519807)"><g><path d="M 2.765625 0.09375 C 2.023438 0.09375 1.457031 -0.132812 1.0625 -0.59375 C 0.675781 -1.050781 0.460938 -1.675781 0.421875 -2.46875 L 1.515625 -2.765625 C 1.554688 -2.203125 1.664062 -1.742188 1.84375 -1.390625 C 2.03125 -1.046875 2.335938 -0.875 2.765625 -0.875 C 3.085938 -0.875 3.328125 -0.960938 3.484375 -1.140625 C 3.648438 -1.316406 3.734375 -1.570312 3.734375 -1.90625 C 3.734375 -2.269531 3.65625 -2.570312 3.5 -2.8125 C 3.351562 -3.050781 3.113281 -3.316406 2.78125 -3.609375 L 1.296875 -4.921875 C 0.992188 -5.179688 0.773438 -5.460938 0.640625 -5.765625 C 0.515625 -6.066406 0.453125 -6.4375 0.453125 -6.875 C 0.453125 -7.519531 0.632812 -8.019531 1 -8.375 C 1.375 -8.726562 1.878906 -8.90625 2.515625 -8.90625 C 3.210938 -8.90625 3.738281 -8.71875 4.09375 -8.34375 C 4.457031 -7.976562 4.675781 -7.40625 4.75 -6.625 L 3.703125 -6.34375 C 3.660156 -6.863281 3.554688 -7.265625 3.390625 -7.546875 C 3.234375 -7.828125 2.941406 -7.96875 2.515625 -7.96875 C 2.203125 -7.96875 1.960938 -7.882812 1.796875 -7.71875 C 1.628906 -7.550781 1.546875 -7.304688 1.546875 -6.984375 C 1.546875 -6.722656 1.585938 -6.503906 1.671875 -6.328125 C 1.765625 -6.148438 1.914062 -5.972656 2.125 -5.796875 L 3.625 -4.484375 C 4.007812 -4.140625 4.316406 -3.765625 4.546875 -3.359375 C 4.773438 -2.960938 4.890625 -2.507812 4.890625 -2 C 4.890625 -1.351562 4.691406 -0.84375 4.296875 -0.46875 C 3.898438 -0.09375 3.390625 0.09375 2.765625 0.09375 Z M 2.765625 0.09375 "/></g></g></g><g fill="#ffffff" fill-opacity="1"><g transform="translate(255.950761, 41.519807)"><g/></g></g><g fill="#ffffff" fill-opacity="1"><g transform="translate(259.493959, 41.519807)"><g><path d="M 2.546875 0.09375 C 1.941406 0.09375 1.46875 -0.0859375 1.125 -0.453125 C 0.789062 -0.816406 0.625 -1.296875 0.625 -1.890625 C 0.625 -2.398438 0.738281 -2.859375 0.96875 -3.265625 C 1.195312 -3.679688 1.515625 -4.070312 1.921875 -4.4375 L 1.671875 -4.890625 C 1.441406 -5.304688 1.265625 -5.671875 1.140625 -5.984375 C 1.015625 -6.296875 0.953125 -6.617188 0.953125 -6.953125 C 0.953125 -7.546875 1.117188 -8.019531 1.453125 -8.375 C 1.796875 -8.726562 2.257812 -8.90625 2.84375 -8.90625 C 3.394531 -8.90625 3.84375 -8.757812 4.1875 -8.46875 C 4.539062 -8.175781 4.71875 -7.78125 4.71875 -7.28125 C 4.71875 -6.757812 4.5625 -6.257812 4.25 -5.78125 C 3.9375 -5.3125 3.539062 -4.847656 3.0625 -4.390625 L 4.390625 -2.296875 C 4.609375 -2.703125 4.753906 -3.289062 4.828125 -4.0625 L 5.984375 -4.0625 C 5.984375 -3.65625 5.894531 -3.21875 5.71875 -2.75 C 5.550781 -2.28125 5.359375 -1.882812 5.140625 -1.5625 C 5.242188 -1.425781 5.367188 -1.316406 5.515625 -1.234375 C 5.671875 -1.148438 5.832031 -1.109375 6 -1.109375 L 6 0.09375 L 5.84375 0.09375 C 5.644531 0.09375 5.460938 0.0507812 5.296875 -0.03125 C 5.140625 -0.125 5.007812 -0.21875 4.90625 -0.3125 C 4.800781 -0.40625 4.644531 -0.554688 4.4375 -0.765625 C 4.226562 -0.503906 3.960938 -0.296875 3.640625 -0.140625 C 3.316406 0.015625 2.953125 0.09375 2.546875 0.09375 Z M 2.65625 -5.015625 C 2.90625 -5.304688 3.117188 -5.660156 3.296875 -6.078125 C 3.472656 -6.492188 3.5625 -6.894531 3.5625 -7.28125 C 3.5625 -7.488281 3.492188 -7.648438 3.359375 -7.765625 C 3.234375 -7.890625 3.0625 -7.953125 2.84375 -7.953125 C 2.59375 -7.953125 2.410156 -7.851562 2.296875 -7.65625 C 2.179688 -7.46875 2.125 -7.234375 2.125 -6.953125 C 2.125 -6.648438 2.171875 -6.34375 2.265625 -6.03125 C 2.359375 -5.726562 2.488281 -5.390625 2.65625 -5.015625 Z M 2.546875 -0.875 C 2.984375 -0.875 3.378906 -1.09375 3.734375 -1.53125 L 2.375 -3.609375 C 2.195312 -3.378906 2.054688 -3.113281 1.953125 -2.8125 C 1.847656 -2.507812 1.796875 -2.203125 1.796875 -1.890625 C 1.796875 -1.597656 1.851562 -1.351562 1.96875 -1.15625 C 2.09375 -0.96875 2.285156 -0.875 2.546875 -0.875 Z M 2.546875 -0.875 "/></g></g></g><g fill="#ffffff" fill-opacity="1"><g transform="translate(267.146457, 41.519807)"><g/></g></g><g fill="#ffffff" fill-opacity="1"><g transform="translate(270.689655, 41.519807)"><g><path d="M 2.765625 0.09375 C 2.023438 0.09375 1.457031 -0.132812 1.0625 -0.59375 C 0.675781 -1.050781 0.460938 -1.675781 0.421875 -2.46875 L 1.515625 -2.765625 C 1.554688 -2.203125 1.664062 -1.742188 1.84375 -1.390625 C 2.03125 -1.046875 2.335938 -0.875 2.765625 -0.875 C 3.085938 -0.875 3.328125 -0.960938 3.484375 -1.140625 C 3.648438 -1.316406 3.734375 -1.570312 3.734375 -1.90625 C 3.734375 -2.269531 3.65625 -2.570312 3.5 -2.8125 C 3.351562 -3.050781 3.113281 -3.316406 2.78125 -3.609375 L 1.296875 -4.921875 C 0.992188 -5.179688 0.773438 -5.460938 0.640625 -5.765625 C 0.515625 -6.066406 0.453125 -6.4375 0.453125 -6.875 C 0.453125 -7.519531 0.632812 -8.019531 1 -8.375 C 1.375 -8.726562 1.878906 -8.90625 2.515625 -8.90625 C 3.210938 -8.90625 3.738281 -8.71875 4.09375 -8.34375 C 4.457031 -7.976562 4.675781 -7.40625 4.75 -6.625 L 3.703125 -6.34375 C 3.660156 -6.863281 3.554688 -7.265625 3.390625 -7.546875 C 3.234375 -7.828125 2.941406 -7.96875 2.515625 -7.96875 C 2.203125 -7.96875 1.960938 -7.882812 1.796875 -7.71875 C 1.628906 -7.550781 1.546875 -7.304688 1.546875 -6.984375 C 1.546875 -6.722656 1.585938 -6.503906 1.671875 -6.328125 C 1.765625 -6.148438 1.914062 -5.972656 2.125 -5.796875 L 3.625 -4.484375 C 4.007812 -4.140625 4.316406 -3.765625 4.546875 -3.359375 C 4.773438 -2.960938 4.890625 -2.507812 4.890625 -2 C 4.890625 -1.351562 4.691406 -0.84375 4.296875 -0.46875 C 3.898438 -0.09375 3.390625 0.09375 2.765625 0.09375 Z M 2.765625 0.09375 "/></g></g></g><g fill="#ffffff" fill-opacity="1"><g transform="translate(276.892444, 41.519807)"><g><path d="M 2.96875 0.09375 C 2.351562 0.09375 1.867188 -0.0234375 1.515625 -0.265625 C 1.171875 -0.515625 0.929688 -0.859375 0.796875 -1.296875 C 0.671875 -1.742188 0.609375 -2.304688 0.609375 -2.984375 L 0.609375 -8.828125 L 1.78125 -8.828125 L 1.78125 -2.921875 C 1.78125 -2.253906 1.859375 -1.742188 2.015625 -1.390625 C 2.171875 -1.046875 2.488281 -0.875 2.96875 -0.875 C 3.4375 -0.875 3.75 -1.046875 3.90625 -1.390625 C 4.0625 -1.742188 4.140625 -2.253906 4.140625 -2.921875 L 4.140625 -8.828125 L 5.3125 -8.828125 L 5.3125 -2.984375 C 5.3125 -2.304688 5.242188 -1.742188 5.109375 -1.296875 C 4.984375 -0.859375 4.75 -0.515625 4.40625 -0.265625 C 4.0625 -0.0234375 3.582031 0.09375 2.96875 0.09375 Z M 2.96875 0.09375 "/></g></g></g><g fill="#ffffff" fill-opacity="1"><g transform="translate(283.858245, 41.519807)"><g><path d="M 0.6875 -8.828125 L 2.875 -8.828125 C 3.644531 -8.828125 4.203125 -8.617188 4.546875 -8.203125 C 4.890625 -7.796875 5.0625 -7.191406 5.0625 -6.390625 C 5.0625 -5.671875 4.875 -5.109375 4.5 -4.703125 C 4.132812 -4.304688 3.597656 -4.109375 2.890625 -4.109375 L 1.921875 -4.109375 L 1.921875 0 L 0.6875 0 Z M 2.484375 -5 C 2.847656 -5 3.128906 -5.035156 3.328125 -5.109375 C 3.523438 -5.191406 3.664062 -5.332031 3.75 -5.53125 C 3.84375 -5.726562 3.890625 -6.007812 3.890625 -6.375 C 3.890625 -6.832031 3.859375 -7.164062 3.796875 -7.375 C 3.734375 -7.582031 3.601562 -7.726562 3.40625 -7.8125 C 3.21875 -7.90625 2.914062 -7.953125 2.5 -7.953125 L 1.921875 -7.953125 L 1.921875 -5 Z M 2.484375 -5 "/></g></g></g><g fill="#ffffff" fill-opacity="1"><g transform="translate(290.137349, 41.519807)"><g><path d="M 0.6875 -8.828125 L 2.875 -8.828125 C 3.644531 -8.828125 4.203125 -8.617188 4.546875 -8.203125 C 4.890625 -7.796875 5.0625 -7.191406 5.0625 -6.390625 C 5.0625 -5.671875 4.875 -5.109375 4.5 -4.703125 C 4.132812 -4.304688 3.597656 -4.109375 2.890625 -4.109375 L 1.921875 -4.109375 L 1.921875 0 L 0.6875 0 Z M 2.484375 -5 C 2.847656 -5 3.128906 -5.035156 3.328125 -5.109375 C 3.523438 -5.191406 3.664062 -5.332031 3.75 -5.53125 C 3.84375 -5.726562 3.890625 -6.007812 3.890625 -6.375 C 3.890625 -6.832031 3.859375 -7.164062 3.796875 -7.375 C 3.734375 -7.582031 3.601562 -7.726562 3.40625 -7.8125 C 3.21875 -7.90625 2.914062 -7.953125 2.5 -7.953125 L 1.921875 -7.953125 L 1.921875 -5 Z M 2.484375 -5 "/></g></g></g><g fill="#ffffff" fill-opacity="1"><g transform="translate(296.416453, 41.519807)"><g><path d="M 2.9375 0.09375 C 2.070312 0.09375 1.453125 -0.148438 1.078125 -0.640625 C 0.710938 -1.128906 0.53125 -1.835938 0.53125 -2.765625 L 0.53125 -6.125 C 0.53125 -7.039062 0.71875 -7.734375 1.09375 -8.203125 C 1.46875 -8.671875 2.082031 -8.90625 2.9375 -8.90625 C 3.800781 -8.90625 4.421875 -8.664062 4.796875 -8.1875 C 5.171875 -7.71875 5.359375 -7.03125 5.359375 -6.125 L 5.359375 -2.765625 C 5.359375 -1.847656 5.164062 -1.140625 4.78125 -0.640625 C 4.40625 -0.148438 3.789062 0.09375 2.9375 0.09375 Z M 2.9375 -0.875 C 3.394531 -0.875 3.703125 -1.003906 3.859375 -1.265625 C 4.023438 -1.535156 4.109375 -1.945312 4.109375 -2.5 L 4.109375 -6.375 C 4.109375 -6.90625 4.023438 -7.300781 3.859375 -7.5625 C 3.703125 -7.820312 3.394531 -7.953125 2.9375 -7.953125 C 2.476562 -7.953125 2.164062 -7.820312 2 -7.5625 C 1.84375 -7.300781 1.765625 -6.90625 1.765625 -6.375 L 1.765625 -2.5 C 1.765625 -1.945312 1.84375 -1.535156 2 -1.265625 C 2.164062 -1.003906 2.476562 -0.875 2.9375 -0.875 Z M 2.9375 -0.875 "/></g></g></g><g fill="#ffffff" fill-opacity="1"><g transform="translate(303.338655, 41.519807)"><g><path d="M 0.6875 -8.828125 L 2.46875 -8.828125 C 3.363281 -8.828125 4.019531 -8.644531 4.4375 -8.28125 C 4.851562 -7.914062 5.0625 -7.316406 5.0625 -6.484375 C 5.0625 -5.347656 4.695312 -4.660156 3.96875 -4.421875 L 5.21875 0 L 4.03125 0 L 2.875 -4.140625 L 1.921875 -4.140625 L 1.921875 0 L 0.6875 0 Z M 2.390625 -5.03125 C 2.921875 -5.03125 3.300781 -5.132812 3.53125 -5.34375 C 3.757812 -5.550781 3.875 -5.929688 3.875 -6.484375 C 3.875 -6.847656 3.832031 -7.132812 3.75 -7.34375 C 3.664062 -7.550781 3.519531 -7.703125 3.3125 -7.796875 C 3.113281 -7.898438 2.832031 -7.953125 2.46875 -7.953125 L 1.921875 -7.953125 L 1.921875 -5.03125 Z M 2.390625 -5.03125 "/></g></g></g><g fill="#ffffff" fill-opacity="1"><g transform="translate(310.042864, 41.519807)"><g><path d="M 1.65625 -7.921875 L 0.15625 -7.921875 L 0.15625 -8.828125 L 4.34375 -8.828125 L 4.34375 -7.921875 L 2.890625 -7.921875 L 2.890625 0 L 1.65625 0 Z M 1.65625 -7.921875 "/></g></g></g><g clip-path="url(#9499327187)"><path fill="#bb0000" d="M 3.597656 7.277344 L 3.519531 34.21875 L 3.675781 35.167969 L 19.335938 45.359375 L 31.089844 37.695312 L 35.121094 35.085938 L 35.160156 6.746094 L 3.667969 6.746094 Z M 3.597656 7.277344 " fill-opacity="1" fill-rule="nonzero"/></g><g clip-path="url(#8ca6560c1e)"><path fill="#010839" d="M 3.667969 6.746094 L 35.160156 6.746094 L 35.160156 15.484375 L 3.667969 15.484375 Z M 3.667969 6.746094 " fill-opacity="1" fill-rule="nonzero"/></g><path fill="#ffffff" d="M 30.214844 38.222656 L 26.128906 41.15625 L 26.128906 15.382812 L 30.214844 15.382812 Z M 30.214844 38.222656 " fill-opacity="1" fill-rule="nonzero"/><g clip-path="url(#4fe4b0103e)"><path fill="#ffffff" d="M 21.421875 44.078125 L 19.335938 45.359375 L 17.335938 44.078125 L 17.335938 15.382812 L 21.421875 15.382812 Z M 21.421875 44.078125 " fill-opacity="1" fill-rule="nonzero"/></g><path fill="#ffffff" d="M 12.460938 41.15625 L 8.378906 38.390625 L 8.378906 15.382812 L 12.460938 15.382812 Z M 12.460938 41.15625 " fill-opacity="1" fill-rule="nonzero"/><path fill="#ffffff" d="M 19.40625 8.042969 L 20.371094 10.011719 L 22.558594 10.320312 L 20.972656 11.851562 L 21.351562 14.023438 L 19.40625 13.003906 L 17.457031 14.023438 L 17.835938 11.851562 L 16.253906 10.320312 L 18.441406 10.011719 Z M 19.40625 8.042969 " fill-opacity="1" fill-rule="nonzero"/><path fill="#ffffff" d="M 28.421875 8.042969 L 29.402344 10.011719 L 31.574219 10.320312 L 30.007812 11.851562 L 30.363281 14.023438 L 28.421875 13.003906 L 26.46875 14.023438 L 26.847656 11.851562 L 25.285156 10.320312 L 27.457031 10.011719 Z M 28.421875 8.042969 " fill-opacity="1" fill-rule="nonzero"/><path fill="#ffffff" d="M 10.390625 8.042969 L 11.355469 10.011719 L 13.527344 10.320312 L 11.957031 11.851562 L 12.335938 14.023438 L 10.390625 13.003906 L 8.441406 14.023438 L 8.804688 11.851562 L 7.238281 10.320312 L 9.414062 10.011719 Z M 10.390625 8.042969 " fill-opacity="1" fill-rule="nonzero"/><g clip-path="url(#628bbaf077)"><path fill="#010839" d="M 19.320312 45.753906 C 19.25 45.753906 19.183594 45.738281 19.128906 45.699219 L 3.359375 35.339844 C 3.257812 35.269531 3.203125 35.167969 3.203125 35.046875 L 3.203125 6.597656 C 3.203125 6.410156 3.359375 6.25 3.550781 6.25 L 35.089844 6.25 C 35.277344 6.25 35.4375 6.410156 35.4375 6.597656 L 35.4375 35.054688 C 35.4375 35.175781 35.382812 35.277344 35.277344 35.347656 L 19.507812 45.699219 C 19.453125 45.738281 19.390625 45.753906 19.320312 45.753906 Z M 3.898438 34.859375 L 19.320312 44.996094 L 34.742188 34.859375 L 34.742188 6.9375 L 3.898438 6.9375 Z M 3.898438 34.859375 " fill-opacity="1" fill-rule="nonzero"/></g><g clip-path="url(#1280025783)"><path fill="#010839" d="M 34.742188 15.90625 L 3.722656 15.90625 C 3.535156 15.90625 3.375 15.746094 3.375 15.558594 C 3.375 15.367188 3.535156 15.210938 3.722656 15.210938 L 34.75 15.210938 C 34.9375 15.210938 35.097656 15.367188 35.097656 15.558594 C 35.089844 15.746094 34.929688 15.90625 34.742188 15.90625 Z M 34.742188 15.90625 " fill-opacity="1" fill-rule="nonzero"/></g></svg>